<svg width="67" height="10" viewBox="0 0 67 10" fill="none" xmlns="http://www.w3.org/2000/svg">
<path fill-rule="evenodd" clip-rule="evenodd" d="M0 0.869784C0 0.745078 0.0994532 0.632812 0.237033 0.632812H5.40269C5.54021 0.632812 5.63973 0.745078 5.63973 0.869784V2.22997C5.63973 2.35468 5.54021 2.46694 5.40269 2.46694H1.94609V4.26382H4.79117C4.91662 4.26382 5.02858 4.37646 5.02858 4.50085V5.86104C5.02858 5.98575 4.91662 6.09807 4.79117 6.09807H1.94609V9.13006C1.94609 9.25477 1.83419 9.36703 1.70912 9.36703H0.237033C0.0994532 9.36703 0 9.25477 0 9.13006V0.869784Z" fill="white"/>
<path fill-rule="evenodd" clip-rule="evenodd" d="M12.8573 0.508057C15.3527 0.508057 17.3485 2.51671 17.3485 5.0125C17.3485 7.50797 15.3527 9.49175 12.8573 9.49175C10.3618 9.49175 8.37695 7.50797 8.37695 5.0125C8.37695 2.51671 10.3618 0.508057 12.8573 0.508057ZM12.8573 7.49509C14.2296 7.49509 15.3527 6.37199 15.3527 5.01249C15.3527 3.63986 14.2296 2.50464 12.8573 2.50464C11.4971 2.50464 10.3743 3.63986 10.3743 5.01249C10.3743 6.37199 11.4971 7.49509 12.8573 7.49509Z" fill="white"/>
<path fill-rule="evenodd" clip-rule="evenodd" d="M22.4371 4.88753L19.9164 0.982112C19.8166 0.820088 19.9164 0.632812 20.1289 0.632812H21.951C22.0385 0.632812 22.1127 0.695383 22.1504 0.745141L23.5859 3.06615H23.5979L25.0576 0.745141C25.0821 0.695383 25.1695 0.632812 25.257 0.632812H27.0791C27.2905 0.632812 27.4035 0.820088 27.2905 0.982112L24.7588 4.88753L27.3779 9.0178C27.4909 9.19263 27.3779 9.36709 27.1786 9.36709H25.4442C25.37 9.36709 25.2694 9.31734 25.2328 9.25483L23.5979 6.73448H23.5724L21.9752 9.25483C21.9386 9.30452 21.8633 9.36709 21.7638 9.36709H20.0294C19.8166 9.36709 19.7046 9.17982 19.8166 9.0178L22.4371 4.88753Z" fill="white"/>
<path fill-rule="evenodd" clip-rule="evenodd" d="M32.5928 2.46676H30.8086C30.6711 2.46676 30.5713 2.3545 30.5713 2.22973V0.869602C30.5713 0.745207 30.6711 0.632568 30.8086 0.632568H36.3485C36.486 0.632568 36.5855 0.745207 36.5855 0.869602V2.22973C36.5855 2.3545 36.486 2.46676 36.3485 2.46676H34.5644V9.12982C34.5644 9.25452 34.4514 9.36679 34.3271 9.36679H32.8297C32.7047 9.36679 32.5928 9.25452 32.5928 9.12982V2.46676Z" fill="white"/>
<path fill-rule="evenodd" clip-rule="evenodd" d="M40.0791 0.869784C40.0791 0.745078 40.1785 0.632812 40.316 0.632812H44.0462C45.5439 0.632812 46.7666 1.84336 46.7666 3.32794C46.7666 4.47597 46.0055 5.3991 44.9204 5.83616L46.6291 9.00567C46.7169 9.16769 46.6291 9.36703 46.4177 9.36703H44.7576C44.6577 9.36703 44.5835 9.30446 44.5579 9.25477L42.8989 5.94812H42.0383V9.13006C42.0383 9.25477 41.9253 9.36703 41.8013 9.36703H40.316C40.1785 9.36703 40.0791 9.25477 40.0791 9.13006V0.869784ZM43.8842 4.36371C44.3959 4.36371 44.8323 3.88971 44.8323 3.36526C44.8323 2.8415 44.3959 2.41719 43.8842 2.41719H42.038V4.36371H43.8842Z" fill="white"/>
<path fill-rule="evenodd" clip-rule="evenodd" d="M54.1473 0.508057C56.6428 0.508057 58.6386 2.51671 58.6386 5.0125C58.6386 7.50797 56.6428 9.49175 54.1473 9.49175C51.6519 9.49175 49.667 7.50797 49.667 5.0125C49.667 2.51671 51.6519 0.508057 54.1473 0.508057ZM54.1475 7.49509C55.5198 7.49509 56.643 6.37199 56.643 5.01249C56.643 3.63986 55.5198 2.50464 54.1475 2.50464C52.7873 2.50464 51.6642 3.63986 51.6642 5.01249C51.6642 6.37199 52.7873 7.49509 54.1475 7.49509Z" fill="white"/>
<path fill-rule="evenodd" clip-rule="evenodd" d="M63.0068 2.46676H61.2223C61.0852 2.46676 60.9854 2.3545 60.9854 2.22973V0.869602C60.9854 0.745207 61.0852 0.632568 61.2223 0.632568H66.7628C66.9003 0.632568 66.9998 0.745207 66.9998 0.869602V2.22973C66.9998 2.3545 66.9003 2.46676 66.7628 2.46676H64.9778V9.12982C64.9778 9.25452 64.8652 9.36679 64.7408 9.36679H63.2437C63.1187 9.36679 63.0068 9.25452 63.0068 9.12982V2.46676Z" fill="white"/>
</svg>
