<?xml version="1.0" encoding="UTF-8"?>
<svg width="130px" height="18px" viewBox="0 0 130 18" version="1.1" xmlns="http://www.w3.org/2000/svg" xmlns:xlink="http://www.w3.org/1999/xlink">
    <!-- Generator: sketchtool 59.1 (101010) - https://sketch.com -->
    <title>E1B5E7AD-E372-438E-B9C3-B4738171AF8D</title>
    <desc>Created with sketchtool.</desc>
    <g id="Working" stroke="none" stroke-width="1" fill="none" fill-rule="evenodd">
        <g id="Artboard-Copy" transform="translate(-123.000000, -112.000000)" fill="#FFFFFF">
            <g id="Foxtrot-Logo-Black-Copy" transform="translate(123.000000, 112.000000)">
                <path d="M0,0.765 C0,0.5244 0.19188,0.3078 0.45732,0.3078 L10.42368,0.3078 C10.689,0.3078 10.881,0.5244 10.881,0.765 L10.881,3.38928 C10.881,3.62988 10.689,3.84648 10.42368,3.84648 L3.75468,3.84648 L3.75468,7.31328 L9.24384,7.31328 C9.48588,7.31328 9.70188,7.5306 9.70188,7.7706 L9.70188,10.39488 C9.70188,10.63548 9.48588,10.8522 9.24384,10.8522 L3.75468,10.8522 L3.75468,16.70196 C3.75468,16.94256 3.5388,17.15916 3.29748,17.15916 L0.45732,17.15916 C0.19188,17.15916 0,16.94256 0,16.70196 L0,0.765" id="Fill-1"></path>
                <path d="M24.8064,0.06732 C29.62092,0.06732 33.4716,3.94272 33.4716,8.75796 C33.4716,13.5726 29.62092,17.4 24.8064,17.4 C19.99176,17.4 16.16232,13.5726 16.16232,8.75796 C16.16232,3.94272 19.99176,0.06732 24.8064,0.06732 M24.8064,13.54776 C27.45396,13.54776 29.62092,11.38092 29.62092,8.75796 C29.62092,6.10968 27.45396,3.91944 24.8064,3.91944 C22.18212,3.91944 20.01576,6.10968 20.01576,8.75796 C20.01576,11.38092 22.18212,13.54776 24.8064,13.54776" id="Fill-3"></path>
                <path d="M43.2888,8.51664 L38.42556,0.98172 C38.23296,0.66912 38.42556,0.3078 38.83548,0.3078 L42.351,0.3078 C42.51972,0.3078 42.663,0.42852 42.7356,0.52452 L45.50532,5.00256 L45.52848,5.00256 L48.34476,0.52452 C48.39204,0.42852 48.56064,0.3078 48.72936,0.3078 L52.24488,0.3078 C52.65264,0.3078 52.87068,0.66912 52.65264,0.98172 L47.76816,8.51664 L52.82136,16.48536 C53.0394,16.82268 52.82136,17.15928 52.43676,17.15928 L49.09056,17.15928 C48.9474,17.15928 48.75324,17.06328 48.6828,16.94268 L45.52848,12.08004 L45.47916,12.08004 L42.39768,16.94268 C42.327,17.03856 42.18168,17.15928 41.9898,17.15928 L38.6436,17.15928 C38.23296,17.15928 38.01696,16.79796 38.23296,16.48536 L43.2888,8.51664" id="Fill-5"></path>
                <path d="M62.88264,3.84648 L59.44044,3.84648 C59.17512,3.84648 58.98252,3.62988 58.98252,3.38916 L58.98252,0.765 C58.98252,0.525 59.17512,0.30768 59.44044,0.30768 L70.12872,0.30768 C70.39404,0.30768 70.58604,0.525 70.58604,0.765 L70.58604,3.38916 C70.58604,3.62988 70.39404,3.84648 70.12872,3.84648 L66.68664,3.84648 L66.68664,16.70184 C66.68664,16.94244 66.4686,17.15904 66.22872,17.15904 L63.33984,17.15904 C63.09852,17.15904 62.88264,16.94244 62.88264,16.70184 L62.88264,3.84648" id="Fill-6"></path>
                <path d="M77.32632,0.765 C77.32632,0.5244 77.51808,0.3078 77.7834,0.3078 L84.98028,0.3078 C87.86988,0.3078 90.22884,2.64336 90.22884,5.50764 C90.22884,7.7226 88.7604,9.50364 86.66688,10.34688 L89.96352,16.46196 C90.13296,16.77456 89.96352,17.15916 89.55564,17.15916 L86.35284,17.15916 C86.16012,17.15916 86.01696,17.03844 85.96752,16.94256 L82.76676,10.56288 L81.10632,10.56288 L81.10632,16.70196 C81.10632,16.94256 80.88828,17.15916 80.64912,17.15916 L77.7834,17.15916 C77.51808,17.15916 77.32632,16.94256 77.32632,16.70196 L77.32632,0.765 Z M84.6684,7.506 C85.65564,7.506 86.49744,6.59148 86.49744,5.57964 C86.49744,4.56912 85.65564,3.75048 84.6684,3.75048 L81.10632,3.75048 L81.10632,7.506 L84.6684,7.506 L84.6684,7.506 Z" id="Fill-7"></path>
                <path d="M104.46948,0.06732 C109.28412,0.06732 113.1348,3.94272 113.1348,8.75796 C113.1348,13.5726 109.28412,17.4 104.46948,17.4 C99.65496,17.4 95.8254,13.5726 95.8254,8.75796 C95.8254,3.94272 99.65496,0.06732 104.46948,0.06732 M104.46948,13.54776 C107.11716,13.54776 109.28412,11.38092 109.28412,8.75796 C109.28412,6.10968 107.11716,3.91944 104.46948,3.91944 C101.8452,3.91944 99.67824,6.10968 99.67824,8.75796 C99.67824,11.38092 101.8452,13.54776 104.46948,13.54776" id="Fill-9"></path>
                <path d="M121.5624,3.84648 L118.1196,3.84648 C117.855,3.84648 117.6624,3.62988 117.6624,3.38916 L117.6624,0.765 C117.6624,0.525 117.855,0.30768 118.1196,0.30768 L128.8092,0.30768 C129.0744,0.30768 129.2664,0.525 129.2664,0.765 L129.2664,3.38916 C129.2664,3.62988 129.0744,3.84648 128.8092,3.84648 L125.3652,3.84648 L125.3652,16.70184 C125.3652,16.94244 125.148,17.15904 124.908,17.15904 L122.0196,17.15904 C121.7784,17.15904 121.5624,16.94244 121.5624,16.70184 L121.5624,3.84648" id="Fill-11"></path>
            </g>
        </g>
    </g>
</svg>